<svg width="15" height="16" viewBox="0 0 15 16" fill="none" xmlns="http://www.w3.org/2000/svg">
<path d="M7.5 0.25C3.36 0.25 0 3.61 0 7.75C0 11.89 3.36 15.25 7.5 15.25C11.64 15.25 15 11.89 15 7.75C15 3.61 11.64 0.25 7.5 0.25ZM4.0125 12.625C4.995 11.92 6.195 11.5 7.5 11.5C8.805 11.5 10.005 11.92 10.9875 12.625C10.005 13.33 8.805 13.75 7.5 13.75C6.195 13.75 4.995 13.33 4.0125 12.625ZM12.105 11.59C10.7911 10.5597 9.16968 9.99971 7.5 9.99971C5.83032 9.99971 4.20887 10.5597 2.895 11.59C1.99286 10.5139 1.49892 9.15423 1.5 7.75C1.5 4.435 4.185 1.75 7.5 1.75C10.815 1.75 13.5 4.435 13.5 7.75C13.5 9.2125 12.975 10.5475 12.105 11.59Z" fill="#0A1748"/>
</svg>
