<svg width="14" height="14" viewBox="0 0 14 14" fill="none" xmlns="http://www.w3.org/2000/svg">
<path d="M2.60585 1.75H11.4046L6.99645 7.2625L2.60585 1.75ZM0.186186 1.40875C1.96354 3.675 5.24549 7.875 5.24549 7.875V13.125C5.24549 13.6062 5.64144 14 6.12537 14H7.88513C8.36906 14 8.76501 13.6062 8.76501 13.125V7.875C8.76501 7.875 12.0382 3.675 13.8155 1.40875C13.9164 1.27958 13.9787 1.12484 13.9954 0.962156C14.0122 0.799473 13.9826 0.635385 13.9102 0.488575C13.8378 0.341764 13.7253 0.218132 13.5857 0.131754C13.4461 0.0453773 13.2849 -0.000273031 13.1204 1.22854e-06H0.88129C0.150991 1.22854e-06 -0.262552 0.831251 0.186186 1.40875Z" fill="#0A1748"/>
</svg>
