<svg width="16" height="16" viewBox="0 0 16 16" fill="none" xmlns="http://www.w3.org/2000/svg">
<path d="M12.3374 11.2933L15.5 14.4552L14.4552 15.5L11.2933 12.3374C10.1168 13.2805 8.65349 13.7935 7.14566 13.7913C3.47726 13.7913 0.5 10.8141 0.5 7.14566C0.5 3.47726 3.47726 0.5 7.14566 0.5C10.8141 0.5 13.7913 3.47726 13.7913 7.14566C13.7935 8.65349 13.2805 10.1168 12.3374 11.2933ZM10.8562 10.7454C11.7931 9.78156 12.3164 8.48984 12.3145 7.14566C12.3145 4.29024 10.0011 1.97681 7.14566 1.97681C4.29024 1.97681 1.97681 4.29024 1.97681 7.14566C1.97681 10.0011 4.29024 12.3145 7.14566 12.3145C8.48984 12.3164 9.78156 11.7931 10.7454 10.8562L10.8562 10.7454Z" fill="#0A1748"/>
</svg>
