<svg width="16" height="18" viewBox="0 0 16 18" fill="none" xmlns="http://www.w3.org/2000/svg">
<path d="M13.3 17.28C12.32 18.23 11.25 18.08 10.22 17.63C9.13004 17.17 8.13004 17.15 6.98004 17.63C5.54004 18.25 4.78004 18.07 3.92004 17.28C-0.959958 12.25 -0.239958 4.59 5.30004 4.31C6.65004 4.38 7.59004 5.05 8.38004 5.11C9.56004 4.87 10.69 4.18 11.95 4.27C13.46 4.39 14.6 4.99 15.35 6.07C12.23 7.94 12.97 12.05 15.83 13.2C15.26 14.7 14.52 16.19 13.29 17.29L13.3 17.28ZM8.28004 4.25C8.13004 2.02 9.94004 0.18 12.02 0C12.31 2.58 9.68004 4.5 8.28004 4.25Z" fill="white"/>
</svg>
