<svg width="16" height="18" viewBox="0 0 16 18" fill="none" xmlns="http://www.w3.org/2000/svg">
<path d="M12.8002 17.28C11.8202 18.23 10.7502 18.08 9.72016 17.63C8.63016 17.17 7.63016 17.15 6.48016 17.63C5.04016 18.25 4.28016 18.07 3.42016 17.28C-1.45984 12.25 -0.739836 4.59 4.80016 4.31C6.15016 4.38 7.09016 5.05 7.88016 5.11C9.06016 4.87 10.1902 4.18 11.4502 4.27C12.9602 4.39 14.1002 4.99 14.8502 6.07C11.7302 7.94 12.4702 12.05 15.3302 13.2C14.7602 14.7 14.0202 16.19 12.7902 17.29L12.8002 17.28ZM7.78016 4.25C7.63016 2.02 9.44016 0.18 11.5202 0C11.8102 2.58 9.18016 4.5 7.78016 4.25Z" fill="white"/>
</svg>
