<svg width="16" height="16" viewBox="0 0 16 16" fill="none" xmlns="http://www.w3.org/2000/svg">
<path d="M0.5 15.5H3.625L12.8417 6.28336L9.71667 3.15836L0.5 12.375V15.5ZM2.16667 13.0667L9.71667 5.51669L10.4833 6.28336L2.93333 13.8334H2.16667V13.0667ZM13.3083 0.741689C13.2312 0.664436 13.1397 0.603147 13.0389 0.561329C12.938 0.519511 12.83 0.497986 12.7208 0.497986C12.6117 0.497986 12.5036 0.519511 12.4028 0.561329C12.302 0.603147 12.2104 0.664436 12.1333 0.741689L10.6083 2.26669L13.7333 5.39169L15.2583 3.86669C15.3356 3.78959 15.3969 3.69802 15.4387 3.59721C15.4805 3.4964 15.502 3.38833 15.502 3.27919C15.502 3.17005 15.4805 3.06198 15.4387 2.96117C15.3969 2.86036 15.3356 2.76878 15.2583 2.69169L13.3083 0.741689Z" fill="#0A1748"/>
</svg>
