<svg width="14" height="14" viewBox="0 0 14 14" fill="none" xmlns="http://www.w3.org/2000/svg">
<path d="M0.25 13.75H3.0625L11.3575 5.455L8.545 2.6425L0.25 10.9375V13.75ZM1.75 11.56L8.545 4.765L9.235 5.455L2.44 12.25H1.75V11.56ZM11.7775 0.4675C11.7081 0.397972 11.6257 0.342812 11.535 0.305176C11.4442 0.26754 11.347 0.248167 11.2488 0.248167C11.1505 0.248167 11.0533 0.26754 10.9625 0.305176C10.8718 0.342812 10.7894 0.397972 10.72 0.4675L9.3475 1.84L12.16 4.6525L13.5325 3.28C13.602 3.21061 13.6572 3.1282 13.6948 3.03747C13.7325 2.94674 13.7518 2.84948 13.7518 2.75125C13.7518 2.65302 13.7325 2.55576 13.6948 2.46503C13.6572 2.3743 13.602 2.29189 13.5325 2.2225L11.7775 0.4675Z" fill="#0A1748"/>
</svg>
