<svg width="28" height="27" viewBox="0 0 28 27" fill="none" xmlns="http://www.w3.org/2000/svg">
<path d="M13.9998 0.166748C6.63984 0.166748 0.666504 6.14008 0.666504 13.5001C0.666504 20.8601 6.63984 26.8334 13.9998 26.8334C21.3598 26.8334 27.3332 20.8601 27.3332 13.5001C27.3332 6.14008 21.3598 0.166748 13.9998 0.166748ZM13.9998 24.1667C8.11984 24.1667 3.33317 19.3801 3.33317 13.5001C3.33317 7.62008 8.11984 2.83341 13.9998 2.83341C19.8798 2.83341 24.6665 7.62008 24.6665 13.5001C24.6665 19.3801 19.8798 24.1667 13.9998 24.1667ZM20.1198 7.60675L11.3332 16.3934L7.87984 12.9534L5.99984 14.8334L11.3332 20.1667L21.9998 9.50008L20.1198 7.60675Z" fill="#0A1748" fill-opacity="0.8"/>
</svg>
