<svg width="28" height="27" viewBox="0 0 28 27" fill="none" xmlns="http://www.w3.org/2000/svg">
<path d="M13.9998 0.166626C6.63984 0.166626 0.666504 6.13996 0.666504 13.5C0.666504 20.86 6.63984 26.8333 13.9998 26.8333C21.3598 26.8333 27.3332 20.86 27.3332 13.5C27.3332 6.13996 21.3598 0.166626 13.9998 0.166626ZM13.9998 24.1666C8.11984 24.1666 3.33317 19.38 3.33317 13.5C3.33317 7.61996 8.11984 2.83329 13.9998 2.83329C19.8798 2.83329 24.6665 7.61996 24.6665 13.5C24.6665 19.38 19.8798 24.1666 13.9998 24.1666ZM20.1198 7.60663L11.3332 16.3933L7.87984 12.9533L5.99984 14.8333L11.3332 20.1666L21.9998 9.49996L20.1198 7.60663Z" fill="#0A1748" fill-opacity="0.8"/>
</svg>
