<svg width="28" height="28" viewBox="0 0 28 28" fill="none" xmlns="http://www.w3.org/2000/svg">
<path d="M13.9998 0.666748C6.63984 0.666748 0.666504 6.64008 0.666504 14.0001C0.666504 21.3601 6.63984 27.3334 13.9998 27.3334C21.3598 27.3334 27.3332 21.3601 27.3332 14.0001C27.3332 6.64008 21.3598 0.666748 13.9998 0.666748ZM13.9998 24.6667C8.11984 24.6667 3.33317 19.8801 3.33317 14.0001C3.33317 8.12008 8.11984 3.33341 13.9998 3.33341C19.8798 3.33341 24.6665 8.12008 24.6665 14.0001C24.6665 19.8801 19.8798 24.6667 13.9998 24.6667ZM20.1198 8.10675L11.3332 16.8934L7.87984 13.4534L5.99984 15.3334L11.3332 20.6667L21.9998 10.0001L20.1198 8.10675Z" fill="#0A1748" fill-opacity="0.8"/>
</svg>
