<svg width="28" height="28" viewBox="0 0 28 28" fill="none" xmlns="http://www.w3.org/2000/svg">
<path d="M13.9998 0.666626C6.63984 0.666626 0.666504 6.63996 0.666504 14C0.666504 21.36 6.63984 27.3333 13.9998 27.3333C21.3598 27.3333 27.3332 21.36 27.3332 14C27.3332 6.63996 21.3598 0.666626 13.9998 0.666626ZM13.9998 24.6666C8.11984 24.6666 3.33317 19.88 3.33317 14C3.33317 8.11996 8.11984 3.33329 13.9998 3.33329C19.8798 3.33329 24.6665 8.11996 24.6665 14C24.6665 19.88 19.8798 24.6666 13.9998 24.6666ZM20.1198 8.10663L11.3332 16.8933L7.87984 13.4533L5.99984 15.3333L11.3332 20.6666L21.9998 9.99996L20.1198 8.10663Z" fill="#0A1748" fill-opacity="0.8"/>
</svg>
