<svg width="16" height="23" viewBox="0 0 16 23" fill="none" xmlns="http://www.w3.org/2000/svg">
<path d="M15.3334 7.66668C15.3334 3.61334 12.0534 0.333344 8.00008 0.333344C3.94675 0.333344 0.666748 3.61334 0.666748 7.66668C0.666748 11.2667 3.25341 14.24 6.66675 14.8667V17.6667H4.00008V20.3333H6.66675V23H9.33342V20.3333H12.0001V17.6667H9.33342V14.8667C12.7467 14.24 15.3334 11.2667 15.3334 7.66668ZM3.33341 7.66668C3.33341 5.09334 5.42675 3.00001 8.00008 3.00001C10.5734 3.00001 12.6667 5.09334 12.6667 7.66668C12.6667 10.24 10.5734 12.3333 8.00008 12.3333C5.42675 12.3333 3.33341 10.24 3.33341 7.66668Z" fill="#0A1748"/>
</svg>
