<svg width="36" height="36" viewBox="0 0 36 36" fill="none" xmlns="http://www.w3.org/2000/svg">
<g filter="url(#filter0_d_1850_2324)">
<rect width="36" height="36" rx="18" fill="black" fill-opacity="0.01" shape-rendering="crispEdges"/>
<path d="M12.0597 22.5056C11.6864 22.8788 11.6788 23.5415 12.0673 23.93C12.4634 24.3185 13.1261 24.3108 13.4917 23.9452L18.0011 19.4358L22.5028 23.9376C22.8837 24.3185 23.5388 24.3185 23.9272 23.93C24.3157 23.5339 24.3157 22.8864 23.9349 22.5056L19.4331 18.0038L23.9349 13.4944C24.3157 13.1136 24.3233 12.4585 23.9272 12.07C23.5388 11.6816 22.8837 11.6816 22.5028 12.0624L18.0011 16.5642L13.4917 12.0624C13.1261 11.6892 12.4558 11.6739 12.0673 12.07C11.6788 12.4585 11.6864 13.1288 12.0597 13.4944L16.5614 18.0038L12.0597 22.5056Z" fill="#0A1748"/>
</g>
<defs>
<filter id="filter0_d_1850_2324" x="-48" y="-48" width="132" height="132" filterUnits="userSpaceOnUse" color-interpolation-filters="sRGB">
<feFlood flood-opacity="0" result="BackgroundImageFix"/>
<feColorMatrix in="SourceAlpha" type="matrix" values="0 0 0 0 0 0 0 0 0 0 0 0 0 0 0 0 0 0 127 0" result="hardAlpha"/>
<feOffset/>
<feGaussianBlur stdDeviation="24"/>
<feComposite in2="hardAlpha" operator="out"/>
<feColorMatrix type="matrix" values="0 0 0 0 0.0392157 0 0 0 0 0.0901961 0 0 0 0 0.282353 0 0 0 0.24 0"/>
<feBlend mode="normal" in2="BackgroundImageFix" result="effect1_dropShadow_1850_2324"/>
<feBlend mode="normal" in="BackgroundImageFix" in2="effect1_dropShadow_1850_2324" result="BackgroundImageFix"/>
<feBlend mode="normal" in="SourceGraphic" in2="BackgroundImageFix" result="shape"/>
</filter>
</defs>
</svg>
