<svg width="10" height="16" viewBox="0 0 10 16" fill="none" xmlns="http://www.w3.org/2000/svg">
<path d="M8.84976 0.491637C8.753 0.39463 8.63805 0.317666 8.5115 0.265152C8.38494 0.212639 8.24927 0.185608 8.11226 0.185608C7.97524 0.185608 7.83958 0.212639 7.71302 0.265152C7.58647 0.317666 7.47152 0.39463 7.37476 0.491637L0.449758 7.41664C0.372505 7.49373 0.311216 7.5853 0.269398 7.68612C0.22758 7.78693 0.206055 7.895 0.206055 8.00414C0.206055 8.11328 0.22758 8.22134 0.269398 8.32216C0.311216 8.42297 0.372505 8.51454 0.449758 8.59164L7.37476 15.5166C7.78309 15.925 8.44143 15.925 8.84976 15.5166C9.25809 15.1083 9.25809 14.45 8.84976 14.0416L2.81643 7.99997L8.85809 1.9583C9.25809 1.5583 9.25809 0.891637 8.84976 0.491637Z" fill="#0A1748"/>
</svg>
